<?xml version="1.0" encoding="UTF-8" standalone="no"?>
<!-- Created with Inkscape (http://www.inkscape.org/) -->

<svg
   xmlns:dc="http://purl.org/dc/elements/1.1/"
   xmlns:cc="http://creativecommons.org/ns#"
   xmlns:rdf="http://www.w3.org/1999/02/22-rdf-syntax-ns#"
   xmlns:svg="http://www.w3.org/2000/svg"
   xmlns="http://www.w3.org/2000/svg"
   xmlns:xlink="http://www.w3.org/1999/xlink"
   xmlns:sodipodi="http://sodipodi.sourceforge.net/DTD/sodipodi-0.dtd"
   xmlns:inkscape="http://www.inkscape.org/namespaces/inkscape"
   width="338.66666mm"
   height="254mm"
   viewBox="0 0 1200 900"
   id="svg65672"
   version="1.1"
   inkscape:version="0.91 r13725"
   sodipodi:docname="Machine_Game_User_Interface_Background.svg">
  <defs
     id="defs65674">
    <radialGradient
       inkscape:collect="always"
       xlink:href="#linearGradient54386"
       id="radialGradient107242"
       gradientUnits="userSpaceOnUse"
       gradientTransform="matrix(1.6149031,0,0,1.2111772,-527.2386,-130.04901)"
       cx="372.14285"
       cy="505.21936"
       fx="372.14285"
       fy="505.21936"
       r="317.04694" />
    <linearGradient
       inkscape:collect="always"
       id="linearGradient54386">
      <stop
         id="stop54390"
         offset="0"
         style="stop-color:#ffffff;stop-opacity:1" />
      <stop
         id="stop54388"
         offset="1"
         style="stop-color:#e4e4e4;stop-opacity:1;" />
    </linearGradient>
    <linearGradient
       inkscape:collect="always"
       xlink:href="#linearGradient4993"
       id="linearGradient107244"
       gradientUnits="userSpaceOnUse"
       gradientTransform="matrix(0.49984092,0,0,-0.49984089,255.10615,476.02271)"
       x1="237.125"
       y1="343.36221"
       x2="237.125"
       y2="312.61221" />
    <linearGradient
       id="linearGradient4993"
       inkscape:collect="always">
      <stop
         id="stop4995"
         offset="0"
         style="stop-color:#afafaf;stop-opacity:1;" />
      <stop
         id="stop4997"
         offset="1"
         style="stop-color:#fdfdfd;stop-opacity:1" />
    </linearGradient>
    <linearGradient
       inkscape:collect="always"
       xlink:href="#linearGradient4993"
       id="linearGradient66300"
       gradientUnits="userSpaceOnUse"
       gradientTransform="matrix(0.49984092,0,0,-0.49984089,255.10615,476.02271)"
       x1="237.125"
       y1="343.36221"
       x2="237.125"
       y2="312.61221" />
  </defs>
  <sodipodi:namedview
     id="base"
     pagecolor="#ffffff"
     bordercolor="#666666"
     borderopacity="1.0"
     inkscape:pageopacity="0.0"
     inkscape:pageshadow="2"
     inkscape:zoom="0.35"
     inkscape:cx="630.08286"
     inkscape:cy="474.07032"
     inkscape:document-units="px"
     inkscape:current-layer="layer1"
     showgrid="false"
     fit-margin-top="0"
     fit-margin-left="0"
     fit-margin-right="0"
     fit-margin-bottom="0"
     inkscape:showpageshadow="false"
     inkscape:window-width="1366"
     inkscape:window-height="706"
     inkscape:window-x="-8"
     inkscape:window-y="-8"
     inkscape:window-maximized="1" />
  <metadata
     id="metadata65677">
    <rdf:RDF>
      <cc:Work
         rdf:about="">
        <dc:format>image/svg+xml</dc:format>
        <dc:type
           rdf:resource="http://purl.org/dc/dcmitype/StillImage" />
        <dc:title></dc:title>
      </cc:Work>
    </rdf:RDF>
  </metadata>
  <g
     inkscape:label="Layer 1"
     inkscape:groupmode="layer"
     id="layer1"
     transform="translate(240.71428,-96.469318)">
    <g
       id="g107186"
       transform="matrix(1.171875,0,0,1.171875,272.87635,-18.21167)"
       inkscape:export-xdpi="89.699318"
       inkscape:export-ydpi="89.699318">
      <path
         inkscape:connector-curvature="0"
         id="path107188"
         d="m -438.264,97.861113 1024,0 0,767.999997 -1024,0 z"
         style="color:#000000;clip-rule:nonzero;display:inline;overflow:visible;visibility:visible;opacity:1;isolation:auto;mix-blend-mode:normal;color-interpolation:sRGB;color-interpolation-filters:linearRGB;solid-color:#000000;solid-opacity:1;fill:url(#radialGradient107242);fill-opacity:1;fill-rule:evenodd;stroke:none;stroke-width:2;stroke-linecap:round;stroke-linejoin:round;stroke-miterlimit:4;stroke-dasharray:none;stroke-dashoffset:0;stroke-opacity:1;marker:none;color-rendering:auto;image-rendering:auto;shape-rendering:auto;text-rendering:auto;enable-background:accumulate"
         sodipodi:nodetypes="ccccc" />
      <g
         id="g107190"
         transform="translate(200.0003,-325.71422)">
        <g
           id="g107192"
           transform="matrix(1.6949525,0,0,-1.6949525,-757.02918,1644.8635)">
          <path
             style="color:#000000;clip-rule:nonzero;display:inline;overflow:visible;visibility:visible;opacity:1;isolation:auto;mix-blend-mode:normal;color-interpolation:sRGB;color-interpolation-filters:linearRGB;solid-color:#000000;solid-opacity:1;fill:#ffffff;fill-opacity:1;fill-rule:evenodd;stroke:none;stroke-width:2;stroke-linecap:round;stroke-linejoin:round;stroke-miterlimit:4;stroke-dasharray:none;stroke-dashoffset:0;stroke-opacity:1;marker:none;color-rendering:auto;image-rendering:auto;shape-rendering:auto;text-rendering:auto;enable-background:accumulate"
             d="m 70.070483,318.09289 0,1.32032 185.406937,-3e-5 12.11914,13.57031 209.09375,0 12.11914,-13.57031 185.40688,3e-5 0,-1.32032 z"
             id="path107194"
             inkscape:connector-curvature="0"
             sodipodi:nodetypes="ccccccccc" />
          <path
             style="color:#000000;clip-rule:nonzero;display:inline;overflow:visible;visibility:visible;opacity:1;isolation:auto;mix-blend-mode:normal;color-interpolation:sRGB;color-interpolation-filters:linearRGB;solid-color:#000000;solid-opacity:1;fill:#e4e4e4;fill-opacity:1;fill-rule:evenodd;stroke:none;stroke-width:2;stroke-linecap:round;stroke-linejoin:round;stroke-miterlimit:4;stroke-dasharray:none;stroke-dashoffset:0;stroke-opacity:1;marker:none;color-rendering:auto;image-rendering:auto;shape-rendering:auto;text-rendering:auto;enable-background:accumulate"
             d="m 70.069855,267.43414 604.145965,0 0,39.85612 -185.40663,-3e-5 -12.11888,13.57143 -209.09489,0 -12.11888,-13.57143 -185.406685,3e-5 z"
             id="path107196"
             inkscape:connector-curvature="0"
             sodipodi:nodetypes="ccccccccc" />
          <path
             sodipodi:nodetypes="ccccccccccccc"
             inkscape:connector-curvature="0"
             id="path107198"
             d="m 70.070483,305.97106 0,1.32032 185.406937,-3e-5 12.11914,13.57031 209.09375,0 12.11914,-13.57031 185.40688,3e-5 0,-1.32032 -186.03774,-3e-5 -12.11914,13.57227 -207.83203,0 -12.11914,-13.57227 z"
             style="color:#000000;clip-rule:nonzero;display:inline;overflow:visible;visibility:visible;opacity:1;isolation:auto;mix-blend-mode:normal;color-interpolation:sRGB;color-interpolation-filters:linearRGB;solid-color:#000000;solid-opacity:1;fill:#b1b1b1;fill-opacity:1;fill-rule:evenodd;stroke:none;stroke-width:2;stroke-linecap:round;stroke-linejoin:round;stroke-miterlimit:4;stroke-dasharray:none;stroke-dashoffset:0;stroke-opacity:1;marker:none;color-rendering:auto;image-rendering:auto;shape-rendering:auto;text-rendering:auto;enable-background:accumulate" />
        </g>
        <g
           transform="matrix(1.6949525,0,0,-1.6949525,-751.27414,1644.7679)"
           id="g107200">
          <path
             style="color:#000000;font-style:normal;font-variant:normal;font-weight:normal;font-stretch:normal;font-size:medium;line-height:normal;font-family:sans-serif;text-indent:0;text-align:start;text-decoration:none;text-decoration-line:none;text-decoration-style:solid;text-decoration-color:#000000;letter-spacing:normal;word-spacing:normal;text-transform:none;direction:ltr;block-progression:tb;writing-mode:lr-tb;baseline-shift:baseline;text-anchor:start;white-space:normal;clip-rule:nonzero;display:inline;overflow:visible;visibility:visible;opacity:1;isolation:auto;mix-blend-mode:normal;color-interpolation:sRGB;color-interpolation-filters:linearRGB;solid-color:#000000;solid-opacity:1;fill:#b1b1b1;fill-opacity:1;fill-rule:evenodd;stroke:none;stroke-width:3;stroke-linecap:round;stroke-linejoin:round;stroke-miterlimit:4;stroke-dasharray:none;stroke-dashoffset:0;stroke-opacity:1;marker:none;color-rendering:auto;image-rendering:auto;shape-rendering:auto;text-rendering:auto;enable-background:accumulate"
             d="m 281.31874,320.86214 c -0.57706,-1.9e-4 -0.93764,-0.62484 -0.6492,-1.12464 1.08981,-1.8876 2.09294,-3.39479 3.45593,-4.45367 1.36299,-1.05887 3.06786,-1.60104 5.31862,-1.60104 l 158.60668,0 c 2.25076,0 3.95562,0.54217 5.31863,1.60104 1.36299,1.05888 2.36611,2.56607 3.45592,4.45367 0.28844,0.4998 -0.0721,1.12446 -0.64921,1.12464 z"
             id="path107202"
             inkscape:connector-curvature="0"
             sodipodi:nodetypes="ccssssccc" />
          <path
             style="color:#000000;clip-rule:nonzero;display:inline;overflow:visible;visibility:visible;opacity:1;isolation:auto;mix-blend-mode:normal;color-interpolation:sRGB;color-interpolation-filters:linearRGB;solid-color:#000000;solid-opacity:1;fill:url(#linearGradient66300);fill-opacity:1;fill-rule:evenodd;stroke:none;stroke-width:3;stroke-linecap:round;stroke-linejoin:round;stroke-miterlimit:4;stroke-dasharray:none;stroke-dashoffset:0;stroke-opacity:1;marker:none;color-rendering:auto;image-rendering:auto;shape-rendering:auto;text-rendering:auto;enable-background:accumulate"
             d="m 281.31874,320.11238 c 2.15077,-3.72523 3.85248,-5.67983 8.12535,-5.67983 l 158.60668,0 c 4.27287,0 5.97458,1.9546 8.12534,5.67983 z"
             id="path107204"
             inkscape:connector-curvature="0"
             sodipodi:nodetypes="csscc" />
        </g>
      </g>
      <g
         id="g107206"
         transform="translate(200.0003,-287.646)">
        <path
           style="color:#000000;clip-rule:nonzero;display:inline;overflow:visible;visibility:visible;opacity:1;isolation:auto;mix-blend-mode:normal;color-interpolation:sRGB;color-interpolation-filters:linearRGB;solid-color:#000000;solid-opacity:1;fill:#ffffff;fill-opacity:1;fill-rule:evenodd;stroke:none;stroke-width:2;stroke-linecap:round;stroke-linejoin:round;stroke-miterlimit:4;stroke-dasharray:none;stroke-dashoffset:0;stroke-opacity:1;marker:none;color-rendering:auto;image-rendering:auto;shape-rendering:auto;text-rendering:auto;enable-background:accumulate"
           d="m -638.26301,471.37128 0,2.23788 314.25589,-5e-5 20.5413,23.00103 354.404057,0 20.541299,-23.00103 314.255884,5e-5 0,-2.23788 z"
           id="path107208"
           inkscape:connector-curvature="0"
           sodipodi:nodetypes="ccccccccc" />
        <path
           style="color:#000000;clip-rule:nonzero;display:inline;overflow:visible;visibility:visible;opacity:1;isolation:auto;mix-blend-mode:normal;color-interpolation:sRGB;color-interpolation-filters:linearRGB;solid-color:#000000;solid-opacity:1;fill:#e4e4e4;fill-opacity:1;fill-rule:evenodd;stroke:none;stroke-width:2;stroke-linecap:round;stroke-linejoin:round;stroke-miterlimit:4;stroke-dasharray:none;stroke-dashoffset:0;stroke-opacity:1;marker:none;color-rendering:auto;image-rendering:auto;shape-rendering:auto;text-rendering:auto;enable-background:accumulate"
           d="m -638.26403,385.50711 1023.99861,0 0,67.55423 -314.255383,-5e-5 -20.54096,23.00293 -354.405927,0 -20.54096,-23.00293 -314.25538,5e-5 z"
           id="path107210"
           inkscape:connector-curvature="0"
           sodipodi:nodetypes="ccccccccc" />
        <g
           id="g107212"
           transform="matrix(1.6949525,0,0,1.6949525,-751.27414,-67.781056)">
          <path
             sodipodi:nodetypes="ccssssccc"
             inkscape:connector-curvature="0"
             id="path107214"
             d="m 281.31874,320.86214 c -0.57706,-1.9e-4 -0.93764,-0.62484 -0.6492,-1.12464 1.08981,-1.8876 2.09294,-3.39479 3.45593,-4.45367 1.36299,-1.05887 3.06786,-1.60104 5.31862,-1.60104 l 158.60668,0 c 2.25076,0 3.95562,0.54217 5.31863,1.60104 1.36299,1.05888 2.36611,2.56607 3.45592,4.45367 0.28844,0.4998 -0.0721,1.12446 -0.64921,1.12464 z"
             style="color:#000000;font-style:normal;font-variant:normal;font-weight:normal;font-stretch:normal;font-size:medium;line-height:normal;font-family:sans-serif;text-indent:0;text-align:start;text-decoration:none;text-decoration-line:none;text-decoration-style:solid;text-decoration-color:#000000;letter-spacing:normal;word-spacing:normal;text-transform:none;direction:ltr;block-progression:tb;writing-mode:lr-tb;baseline-shift:baseline;text-anchor:start;white-space:normal;clip-rule:nonzero;display:inline;overflow:visible;visibility:visible;opacity:1;isolation:auto;mix-blend-mode:normal;color-interpolation:sRGB;color-interpolation-filters:linearRGB;solid-color:#000000;solid-opacity:1;fill:#b1b1b1;fill-opacity:1;fill-rule:evenodd;stroke:none;stroke-width:3;stroke-linecap:round;stroke-linejoin:round;stroke-miterlimit:4;stroke-dasharray:none;stroke-dashoffset:0;stroke-opacity:1;marker:none;color-rendering:auto;image-rendering:auto;shape-rendering:auto;text-rendering:auto;enable-background:accumulate" />
          <path
             sodipodi:nodetypes="csscc"
             inkscape:connector-curvature="0"
             id="path107216"
             d="m 281.31874,320.11238 c 2.15077,-3.72523 3.85248,-5.67983 8.12535,-5.67983 l 158.60668,0 c 4.27287,0 5.97458,1.9546 8.12534,5.67983 z"
             style="color:#000000;clip-rule:nonzero;display:inline;overflow:visible;visibility:visible;opacity:1;isolation:auto;mix-blend-mode:normal;color-interpolation:sRGB;color-interpolation-filters:linearRGB;solid-color:#000000;solid-opacity:1;fill:url(#linearGradient107244);fill-opacity:1;fill-rule:evenodd;stroke:none;stroke-width:3;stroke-linecap:round;stroke-linejoin:round;stroke-miterlimit:4;stroke-dasharray:none;stroke-dashoffset:0;stroke-opacity:1;marker:none;color-rendering:auto;image-rendering:auto;shape-rendering:auto;text-rendering:auto;enable-background:accumulate" />
        </g>
        <path
           sodipodi:nodetypes="ccccccccccccc"
           inkscape:connector-curvature="0"
           id="path107218"
           d="m -638.26301,450.82536 0,2.23788 314.25589,-5e-5 20.5413,23.00103 354.404057,0 20.541299,-23.00103 314.255884,5e-5 0,-2.23788 -315.325061,-5e-5 -20.541468,23.00435 -352.265371,0 -20.5413,-23.00435 z"
           style="color:#000000;clip-rule:nonzero;display:inline;overflow:visible;visibility:visible;opacity:1;isolation:auto;mix-blend-mode:normal;color-interpolation:sRGB;color-interpolation-filters:linearRGB;solid-color:#000000;solid-opacity:1;fill:#b1b1b1;fill-opacity:1;fill-rule:evenodd;stroke:none;stroke-width:2;stroke-linecap:round;stroke-linejoin:round;stroke-miterlimit:4;stroke-dasharray:none;stroke-dashoffset:0;stroke-opacity:1;marker:none;color-rendering:auto;image-rendering:auto;shape-rendering:auto;text-rendering:auto;enable-background:accumulate" />
      </g>
      <g
         id="g107220"
         transform="translate(0,-1.35e-5)">
        <g
           id="g107222"
           transform="matrix(1.6949525,0,0,1.6949525,-557.29422,-357.23365)">
          <path
             id="path107224"
             style="color:#000000;clip-rule:nonzero;display:inline;overflow:visible;visibility:visible;opacity:1;isolation:auto;mix-blend-mode:normal;color-interpolation:sRGB;color-interpolation-filters:linearRGB;solid-color:#000000;solid-opacity:1;fill:#333333;fill-opacity:1;fill-rule:evenodd;stroke:none;stroke-width:9;stroke-linecap:round;stroke-linejoin:round;stroke-miterlimit:4;stroke-dasharray:none;stroke-dashoffset:0;stroke-opacity:1;marker:none;color-rendering:auto;image-rendering:auto;shape-rendering:auto;text-rendering:auto;enable-background:accumulate"
             d="m 490.6472,324.31492 -0.63439,0 c -0.33899,0 -0.79311,0.23629 -1.01833,0.53139 l -4.90585,6.41422 c -0.22602,0.29435 -0.13354,0.5314 0.20547,0.5314 l 0.63464,0 c 0.33903,0 0.7931,-0.23629 1.0181,-0.5314 l 4.90583,-6.41422 c 0.22601,-0.29434 0.13354,-0.53139 -0.20547,-0.53139 z m 4.84881,0 -0.63439,0 c -0.33903,0 -0.79312,0.23629 -1.01835,0.53139 l -4.90583,6.41422 c -0.22603,0.29435 -0.13354,0.5314 0.20547,0.5314 l 0.63466,0 c 0.33874,0 0.79286,-0.23629 1.01807,-0.5314 l 4.90585,-6.41422 c 0.22603,-0.29434 0.13354,-0.53139 -0.20547,-0.53139 z m 4.8488,0 -0.63464,0 c -0.33877,0 -0.79284,0.23629 -1.01809,0.53139 l -4.90583,6.41422 c -0.22601,0.29435 -0.13354,0.5314 0.20547,0.5314 l 0.63464,0 c 0.33877,0 0.79286,-0.23629 1.01809,-0.5314 l 4.90583,-6.41422 c 0.22603,-0.29434 0.13354,-0.53139 -0.20547,-0.53139 z"
             inkscape:connector-curvature="0" />
          <path
             inkscape:connector-curvature="0"
             d="m 253.9521,324.31492 0.63439,0 c 0.33899,0 0.79311,0.23629 1.01833,0.53139 l 4.90585,6.41422 c 0.22602,0.29435 0.13354,0.5314 -0.20547,0.5314 l -0.63464,0 c -0.33903,0 -0.7931,-0.23629 -1.0181,-0.5314 l -4.90583,-6.41422 c -0.22601,-0.29434 -0.13354,-0.53139 0.20547,-0.53139 z m -4.84881,0 0.63439,0 c 0.33903,0 0.79312,0.23629 1.01835,0.53139 l 4.90583,6.41422 c 0.22603,0.29435 0.13354,0.5314 -0.20547,0.5314 l -0.63466,0 c -0.33874,0 -0.79286,-0.23629 -1.01807,-0.5314 l -4.90585,-6.41422 c -0.22603,-0.29434 -0.13354,-0.53139 0.20547,-0.53139 z m -4.8488,0 0.63464,0 c 0.33877,0 0.79284,0.23629 1.01809,0.53139 l 4.90583,6.41422 c 0.22601,0.29435 0.13354,0.5314 -0.20547,0.5314 l -0.63464,0 c -0.33877,0 -0.79286,-0.23629 -1.01809,-0.5314 l -4.90583,-6.41422 c -0.22603,-0.29434 -0.13354,-0.53139 0.20547,-0.53139 z"
             style="color:#000000;clip-rule:nonzero;display:inline;overflow:visible;visibility:visible;opacity:1;isolation:auto;mix-blend-mode:normal;color-interpolation:sRGB;color-interpolation-filters:linearRGB;solid-color:#000000;solid-opacity:1;fill:#333333;fill-opacity:1;fill-rule:evenodd;stroke:none;stroke-width:9;stroke-linecap:round;stroke-linejoin:round;stroke-miterlimit:4;stroke-dasharray:none;stroke-dashoffset:0;stroke-opacity:1;marker:none;color-rendering:auto;image-rendering:auto;shape-rendering:auto;text-rendering:auto;enable-background:accumulate"
             id="path107226" />
        </g>
        <g
           transform="matrix(1.6949525,0,0,-1.6949525,-557.29422,1320.9559)"
           id="g107228">
          <path
             inkscape:connector-curvature="0"
             d="m 490.6472,324.31492 -0.63439,0 c -0.33899,0 -0.79311,0.23629 -1.01833,0.53139 l -4.90585,6.41422 c -0.22602,0.29435 -0.13354,0.5314 0.20547,0.5314 l 0.63464,0 c 0.33903,0 0.7931,-0.23629 1.0181,-0.5314 l 4.90583,-6.41422 c 0.22601,-0.29434 0.13354,-0.53139 -0.20547,-0.53139 z m 4.84881,0 -0.63439,0 c -0.33903,0 -0.79312,0.23629 -1.01835,0.53139 l -4.90583,6.41422 c -0.22603,0.29435 -0.13354,0.5314 0.20547,0.5314 l 0.63466,0 c 0.33874,0 0.79286,-0.23629 1.01807,-0.5314 l 4.90585,-6.41422 c 0.22603,-0.29434 0.13354,-0.53139 -0.20547,-0.53139 z m 4.8488,0 -0.63464,0 c -0.33877,0 -0.79284,0.23629 -1.01809,0.53139 l -4.90583,6.41422 c -0.22601,0.29435 -0.13354,0.5314 0.20547,0.5314 l 0.63464,0 c 0.33877,0 0.79286,-0.23629 1.01809,-0.5314 l 4.90583,-6.41422 c 0.22603,-0.29434 0.13354,-0.53139 -0.20547,-0.53139 z"
             style="color:#000000;clip-rule:nonzero;display:inline;overflow:visible;visibility:visible;opacity:1;isolation:auto;mix-blend-mode:normal;color-interpolation:sRGB;color-interpolation-filters:linearRGB;solid-color:#000000;solid-opacity:1;fill:#333333;fill-opacity:1;fill-rule:evenodd;stroke:none;stroke-width:9;stroke-linecap:round;stroke-linejoin:round;stroke-miterlimit:4;stroke-dasharray:none;stroke-dashoffset:0;stroke-opacity:1;marker:none;color-rendering:auto;image-rendering:auto;shape-rendering:auto;text-rendering:auto;enable-background:accumulate"
             id="path107230" />
          <path
             id="path107232"
             style="color:#000000;clip-rule:nonzero;display:inline;overflow:visible;visibility:visible;opacity:1;isolation:auto;mix-blend-mode:normal;color-interpolation:sRGB;color-interpolation-filters:linearRGB;solid-color:#000000;solid-opacity:1;fill:#333333;fill-opacity:1;fill-rule:evenodd;stroke:none;stroke-width:9;stroke-linecap:round;stroke-linejoin:round;stroke-miterlimit:4;stroke-dasharray:none;stroke-dashoffset:0;stroke-opacity:1;marker:none;color-rendering:auto;image-rendering:auto;shape-rendering:auto;text-rendering:auto;enable-background:accumulate"
             d="m 253.9521,324.31492 0.63439,0 c 0.33899,0 0.79311,0.23629 1.01833,0.53139 l 4.90585,6.41422 c 0.22602,0.29435 0.13354,0.5314 -0.20547,0.5314 l -0.63464,0 c -0.33903,0 -0.7931,-0.23629 -1.0181,-0.5314 l -4.90583,-6.41422 c -0.22601,-0.29434 -0.13354,-0.53139 0.20547,-0.53139 z m -4.84881,0 0.63439,0 c 0.33903,0 0.79312,0.23629 1.01835,0.53139 l 4.90583,6.41422 c 0.22603,0.29435 0.13354,0.5314 -0.20547,0.5314 l -0.63466,0 c -0.33874,0 -0.79286,-0.23629 -1.01807,-0.5314 l -4.90585,-6.41422 c -0.22603,-0.29434 -0.13354,-0.53139 0.20547,-0.53139 z m -4.8488,0 0.63464,0 c 0.33877,0 0.79284,0.23629 1.01809,0.53139 l 4.90583,6.41422 c 0.22601,0.29435 0.13354,0.5314 -0.20547,0.5314 l -0.63464,0 c -0.33877,0 -0.79286,-0.23629 -1.01809,-0.5314 l -4.90583,-6.41422 c -0.22603,-0.29434 -0.13354,-0.53139 0.20547,-0.53139 z"
             inkscape:connector-curvature="0" />
        </g>
      </g>
      <path
         sodipodi:nodetypes="ccccc"
         inkscape:connector-curvature="0"
         id="path107234"
         d="m -438.26299,494.3893 1023.99827,0 0,9.25032 -1023.99827,0 z"
         style="color:#000000;clip-rule:nonzero;display:inline;overflow:visible;visibility:visible;opacity:1;isolation:auto;mix-blend-mode:normal;color-interpolation:sRGB;color-interpolation-filters:linearRGB;solid-color:#000000;solid-opacity:1;fill:#e4e4e4;fill-opacity:1;fill-rule:evenodd;stroke:none;stroke-width:2;stroke-linecap:round;stroke-linejoin:round;stroke-miterlimit:4;stroke-dasharray:none;stroke-dashoffset:0;stroke-opacity:1;marker:none;color-rendering:auto;image-rendering:auto;shape-rendering:auto;text-rendering:auto;enable-background:accumulate" />
      <path
         sodipodi:nodetypes="ccccc"
         inkscape:connector-curvature="0"
         id="path107236"
         d="m -438.26299,494.3893 1023.99827,0 0,-2.1471 -1023.99827,0 z"
         style="color:#000000;clip-rule:nonzero;display:inline;overflow:visible;visibility:visible;opacity:1;isolation:auto;mix-blend-mode:normal;color-interpolation:sRGB;color-interpolation-filters:linearRGB;solid-color:#000000;solid-opacity:1;fill:#b1b1b1;fill-opacity:1;fill-rule:evenodd;stroke:none;stroke-width:2;stroke-linecap:round;stroke-linejoin:round;stroke-miterlimit:4;stroke-dasharray:none;stroke-dashoffset:0;stroke-opacity:1;marker:none;color-rendering:auto;image-rendering:auto;shape-rendering:auto;text-rendering:auto;enable-background:accumulate" />
      <path
         sodipodi:nodetypes="cccccccccccccccccccccccccccccccccccccccccccccccccccc"
         id="path107238"
         d="m -438.26384,278.61854 0,10.49745 218.97329,0 108.72527,108.72526 c 0.98375,0.985 2.31887,1.53874 3.7111,1.53935 l 361.18048,0 c 1.39105,-0.001 2.72463,-0.55515 3.70771,-1.53935 l 108.72849,-108.72526 218.97329,0 0,-10.49745 -221.14825,0 c -1.39224,6.1e-4 -2.72718,0.55437 -3.7111,1.53937 l -108.7251,108.72524 -356.83056,0 -108.72866,-108.72524 c -0.98273,-0.9842 -2.31666,-1.53788 -3.70754,-1.53937 z m 317.97581,33.80968 50.37517,50.37517 287.29106,0 50.37517,-50.37517 -16.94952,0 -39.23883,39.23881 -275.6647,0 -39.23883,-39.23881 z m -317.97581,251.91231 0,10.49745 218.97329,0 108.72527,108.72524 c 0.98375,0.985 2.31887,1.53876 3.7111,1.53937 l 361.18048,0 c 1.39105,-10e-4 2.72463,-0.55516 3.70771,-1.53937 l 108.72849,-108.72524 218.97329,0 0,-10.49745 -221.14825,0 c -1.39224,6.1e-4 -2.72718,0.55435 -3.7111,1.53936 l -108.7251,108.72525 -356.83056,0 -108.72866,-108.72525 c -0.98273,-0.98421 -2.31666,-1.53787 -3.70754,-1.53936 z m 317.97581,33.80966 50.37517,50.37519 287.29106,0 50.37517,-50.37519 -16.94952,0 -39.23883,39.23883 -275.6647,0 -39.23883,-39.23883 z"
         style="color:#000000;clip-rule:nonzero;display:inline;overflow:visible;visibility:visible;opacity:1;isolation:auto;mix-blend-mode:normal;color-interpolation:sRGB;color-interpolation-filters:linearRGB;solid-color:#000000;solid-opacity:1;fill:#e4e4e4;fill-opacity:1;fill-rule:evenodd;stroke:none;stroke-width:4.68409586;stroke-linecap:butt;stroke-linejoin:miter;stroke-miterlimit:4;stroke-dasharray:none;stroke-dashoffset:0;stroke-opacity:1;marker:none;color-rendering:auto;image-rendering:auto;shape-rendering:auto;text-rendering:auto;enable-background:accumulate"
         inkscape:connector-curvature="0" />
      <path
         sodipodi:nodetypes="cccccccccccccccccccccccccccccccccccccccccccccccccccccccccccc"
         inkscape:connector-curvature="0"
         id="path107240"
         d="m -438.26045,278.61854 0,2.14849 220.18484,0 c 1.39224,6.1e-4 2.72718,0.55435 3.7111,1.53937 l 108.72527,108.72524 358.75382,0 108.72527,-108.72524 c 0.98392,-0.98502 2.31869,-1.53876 3.7111,-1.53937 l 220.18484,0 0,-2.14849 -221.14825,0 c -1.39224,6.1e-4 -2.72718,0.55437 -3.7111,1.53937 l -108.7251,108.72524 -356.82734,0 -108.7251,-108.72524 c -0.98392,-0.985 -2.31886,-1.53876 -3.7111,-1.53937 z m 317.98242,33.80968 2.14835,2.14848 13.83776,0 39.23883,39.23882 277.58152,0 39.23883,-39.23882 13.83776,0 2.14835,-2.14848 -16.94952,0 -39.23883,39.23881 -275.65487,0 -39.23866,-39.23881 z m -317.98242,251.91231 0,2.14849 220.18484,0 c 1.39224,6.1e-4 2.72718,0.55435 3.7111,1.53936 l 108.72527,108.72523 358.75382,0 108.72527,-108.72523 c 0.98392,-0.98501 2.31869,-1.53875 3.7111,-1.53936 l 220.18484,0 0,-2.14849 -221.14825,0 c -1.39224,6.1e-4 -2.72718,0.55435 -3.7111,1.53936 l -108.7251,108.72525 -356.82734,0 -108.7251,-108.72525 c -0.98392,-0.98501 -2.31886,-1.53875 -3.7111,-1.53936 z m 317.98242,33.80966 2.14835,2.14849 13.83776,0 39.23883,39.23881 277.58152,0 39.23883,-39.23881 13.83776,0 2.14835,-2.14849 -16.94952,0 -39.23883,39.23883 -275.65487,0 -39.23866,-39.23883 z"
         style="color:#000000;clip-rule:nonzero;display:inline;overflow:visible;visibility:visible;opacity:1;isolation:auto;mix-blend-mode:normal;color-interpolation:sRGB;color-interpolation-filters:linearRGB;solid-color:#000000;solid-opacity:1;fill:#b1b1b1;fill-opacity:1;fill-rule:evenodd;stroke:none;stroke-width:4.68409586;stroke-linecap:butt;stroke-linejoin:miter;stroke-miterlimit:4;stroke-dasharray:none;stroke-dashoffset:0;stroke-opacity:1;marker:none;color-rendering:auto;image-rendering:auto;shape-rendering:auto;text-rendering:auto;enable-background:accumulate" />
    </g>
  </g>
</svg>
